<svg width="330" height="152" viewBox="0 0 330 152" fill="none" xmlns="http://www.w3.org/2000/svg">
<rect width="330" height="151.038" rx="10" fill="white"/>
<path d="M103 1C161.681 20.7136 191.384 20.083 239.387 1H103Z" fill="#FAFF00" stroke="black"/>
<rect x="168" y="25" width="3.58967" height="17.2652" fill="#E8971E"/>
<rect width="3.76749" height="16.7092" transform="matrix(0.868752 0.495248 -0.33525 0.942129 199.602 32)" fill="#E8971E"/>
<path d="M203 34L204 42" stroke="#967331"/>
<path d="M204 43L205 51" stroke="#967331"/>
<path d="M205 53L206 62" stroke="#967331"/>
<circle cx="170" cy="97" r="55" fill="#59C5FE"/>
<circle cx="170" cy="97" r="55" fill="#59C5FE"/>
<path d="M162.288 74.5926C140.424 75.0556 133.429 72.1589 126.771 63.5021C140.663 46.8513 152.343 40.8683 177.915 42.679C203.487 44.4897 217.288 69.3869 217.288 69.3869C221.683 87.2892 223.584 96.4609 202.066 74.5926C187.312 86.3402 180.254 67.76 183.801 62.5967C187.348 57.4335 169.509 74.2414 162.288 74.5926Z" fill="#55CD68"/>
<path d="M141.993 104.922C138.804 96.7801 135.183 92.7906 115 94.963C115.436 110.338 117.837 118.183 126.162 130.724C140.74 146.6 149.92 150.397 167.362 151.774C172.862 143.542 169.784 138.936 161.476 130.724C153.651 128.409 149.363 127.198 145.849 128.687C146.504 119.538 144.899 114.288 141.993 104.922Z" fill="#55CD68"/>
<path d="M203.893 121.218C193.999 131.448 191.649 137.323 190.295 147.926C207.282 140.331 214.238 133.322 221.55 115.333C214.142 115.208 210.305 116.634 203.893 121.218Z" fill="#55CD68"/>
</svg>
