<svg width="35" height="35" viewBox="0 0 35 35" fill="none" xmlns="http://www.w3.org/2000/svg">
<path d="M28 3.79842V0H7V3.79842H0V9.21053C0 13.8618 3.30575 17.6805 7.567 18.2958C8.17736 20.1799 9.25995 21.8554 10.7003 23.1453C12.1407 24.4352 13.8854 25.2915 15.75 25.6237V27.6316C15.75 28.6087 15.3813 29.5458 14.7249 30.2367C14.0685 30.9276 13.1783 31.3158 12.25 31.3158H10.5V35H24.5V31.3158H22.75C21.8217 31.3158 20.9315 30.9276 20.2751 30.2367C19.6187 29.5458 19.25 28.6087 19.25 27.6316V25.6237C21.1146 25.2915 22.8593 24.4352 24.2997 23.1453C25.7401 21.8554 26.8226 20.1799 27.433 18.2958C31.6943 17.6805 35 13.8618 35 9.21053V3.79842H28ZM3.5 9.21053V7.48263H7V14.42C5.97711 14.0382 5.09155 13.3325 4.46489 12.3997C3.83823 11.467 3.50118 10.3529 3.5 9.21053ZM31.5 9.21053C31.4987 10.3531 31.1616 11.4673 30.535 12.4003C29.9084 13.3333 29.0229 14.0395 28 14.4218V7.48263H31.5V9.21053Z" fill="#FFE24A"/>
</svg>
