<svg width="332" height="205" viewBox="0 0 332 205" fill="none" xmlns="http://www.w3.org/2000/svg">
<rect width="332" height="205" rx="10" fill="white"/>
<path d="M46.8835 165.625V34.4864H291.305V65.8075V133.865V165.625H46.8835Z" fill="#93FF82"/>
<path d="M291.305 133.865V165.625H46.8835V34.4864H291.305V65.8075M291.305 133.865H253.983V65.8075H291.305M291.305 133.865V65.8075" stroke="black"/>
<path d="M291.451 77.8092H266.862V122.595H291.451" stroke="black"/>
<path d="M169.241 165.625L168.802 35.0722" stroke="black"/>
<path d="M46.8835 65.515H84.059V134.011H46.8835" stroke="black"/>
<path d="M194.732 100.349C194.732 113.905 183.291 124.962 169.094 124.962C154.898 124.962 143.457 113.905 143.457 100.349C143.457 86.7918 154.898 75.7356 169.094 75.7356C183.291 75.7356 194.732 86.7918 194.732 100.349Z" stroke="black" stroke-width="2"/>
<path d="M46.7373 78.1019H70.7403V122.595H46.7373" stroke="black"/>
<path d="M84.0588 86.5908C99.4266 88.7862 99.7193 110.887 84.0588 114.253" stroke="black"/>
<path d="M253.91 86.1515C238.542 88.3469 238.249 110.447 253.91 113.814" stroke="black"/>
<path d="M254.133 26.3988H291.105" stroke="black"/>
<path d="M269.458 22.1172C267.963 22.1172 266.899 21.2773 266.899 20.0957V20.0859C266.899 19.2168 267.509 18.4941 268.413 18.2842V18.2646C267.641 18.0254 267.153 17.4395 267.153 16.6973V16.6875C267.153 15.623 268.125 14.8369 269.458 14.8369C270.791 14.8369 271.762 15.623 271.762 16.6875V16.6973C271.762 17.4395 271.274 18.0254 270.503 18.2646V18.2842C271.406 18.4941 272.016 19.2168 272.016 20.0859V20.0957C272.016 21.2773 270.952 22.1172 269.458 22.1172ZM269.458 17.9375C270.307 17.9375 270.888 17.4541 270.888 16.7705V16.7607C270.888 16.0771 270.307 15.5938 269.458 15.5938C268.608 15.5938 268.027 16.0771 268.027 16.7607V16.7705C268.027 17.4541 268.608 17.9375 269.458 17.9375ZM269.458 21.3506C270.429 21.3506 271.123 20.8037 271.123 20.042V20.0322C271.123 19.2607 270.434 18.709 269.458 18.709C268.481 18.709 267.793 19.2607 267.793 20.0322V20.042C267.793 20.8037 268.486 21.3506 269.458 21.3506Z" fill="black"/>
<path d="M253.555 24.0879V28.7095" stroke="black"/>
<path d="M290.528 24.0879V28.7095" stroke="black"/>
<path d="M297.771 133.813L297.507 165.658" stroke="black"/>
<path d="M303.032 151.695C301.577 151.713 300.624 150.915 300.517 149.802L300.512 149.744L301.356 149.733L301.362 149.782C301.439 150.475 302.085 150.945 303.022 150.933C303.945 150.922 304.568 150.396 304.559 149.649L304.559 149.639C304.548 148.775 303.922 148.3 302.935 148.312L302.052 148.323L302.042 147.581L302.887 147.57C303.727 147.56 304.306 147.035 304.297 146.332L304.297 146.322C304.288 145.585 303.799 145.166 302.94 145.177C302.11 145.187 301.525 145.634 301.46 146.348L301.456 146.397L300.611 146.407L300.616 146.359C300.714 145.21 301.612 144.432 302.93 144.415C304.273 144.398 305.166 145.134 305.179 146.204L305.18 146.213C305.191 147.082 304.583 147.686 303.706 147.882L303.707 147.902C304.733 147.977 305.439 148.608 305.452 149.609L305.452 149.618C305.467 150.795 304.443 151.677 303.032 151.695Z" fill="black"/>
<path d="M300.085 133.334L295.464 133.296" stroke="black"/>
<path d="M299.822 165.18L295.2 165.141" stroke="black"/>
<path d="M85.0255 184.689H169.21" stroke="black"/>
<path d="M113.435 180.291V179.685L115.818 177.107C116.716 176.135 116.98 175.769 116.98 175.154V175.144C116.98 174.402 116.477 173.845 115.647 173.845C114.802 173.845 114.24 174.397 114.24 175.227L114.236 175.237L113.396 175.232L113.386 175.227C113.391 173.977 114.358 173.079 115.705 173.079C116.936 173.079 117.878 173.914 117.878 175.051V175.061C117.878 175.867 117.531 176.453 116.257 177.766L114.656 179.422V179.5H117.995V180.291H113.435ZM121.42 180.457C119.863 180.457 118.935 179.036 118.935 176.77V176.76C118.935 174.495 119.863 173.079 121.42 173.079C122.978 173.079 123.915 174.495 123.915 176.76V176.77C123.915 179.036 122.978 180.457 121.42 180.457ZM121.42 179.69C122.431 179.69 123.032 178.567 123.032 176.77V176.76C123.032 174.964 122.431 173.85 121.42 173.85C120.41 173.85 119.819 174.964 119.819 176.76V176.77C119.819 178.567 120.41 179.69 121.42 179.69Z" fill="black"/>
<path d="M84.8655 182.379V187" stroke="black"/>
<path d="M167.895 182.379V187" stroke="black"/>
<path d="M36.3987 132.793L36.7247 64.2799" stroke="black"/>
<path d="M32.1189 107.782L26.0496 107.753L26.0492 107.831L27.3395 109.629L26.4118 109.625L25.0731 107.743L25.0772 106.869L32.123 106.903L32.1189 107.782ZM32.308 102.917C32.3006 104.475 30.8753 105.396 28.6097 105.385L28.6 105.385C26.3344 105.374 24.9228 104.44 24.9302 102.882C24.9376 101.324 26.3581 100.394 28.6237 100.404L28.6334 100.404C30.899 100.415 32.3154 101.359 32.308 102.917ZM31.5414 102.913C31.5462 101.903 30.4261 101.297 28.6292 101.288L28.6194 101.288C26.8226 101.28 25.7065 101.875 25.7017 102.886C25.6968 103.896 26.8073 104.492 28.6042 104.501L28.6139 104.501C30.4108 104.51 31.5366 103.924 31.5414 102.913Z" fill="black"/>
<path d="M34.0279 132.695L38.6495 132.717" stroke="black"/>
<path d="M34.4086 65.3396L39.0302 65.3616" stroke="black"/>
</svg>
