<svg width="330" height="152" viewBox="0 0 330 152" fill="none" xmlns="http://www.w3.org/2000/svg">
<rect width="330" height="151.038" rx="10" fill="white"/>
<path d="M64.1266 131.5V18H275.672V45.1083V104.012V131.5H64.1266Z" fill="#93FF82"/>
<path d="M275.672 104.012V131.5H64.1266V18H275.672V45.1083M275.672 104.012H243.371V45.1083H275.672M275.672 104.012V45.1083" stroke="black"/>
<path d="M275.799 55.4955H254.518V94.2578H275.799" stroke="black"/>
<path d="M170.026 131.5L169.646 18.5068" stroke="black"/>
<path d="M64.1266 44.8549H96.3019V104.138H64.1266" stroke="black"/>
<path d="M191.954 75.0033C191.954 86.6574 182.117 96.1713 169.899 96.1713C157.682 96.1713 147.845 86.6574 147.845 75.0033C147.845 63.3492 157.682 53.8353 169.899 53.8353C182.117 53.8353 191.954 63.3492 191.954 75.0033Z" stroke="black" stroke-width="2"/>
<path d="M64 55.749H84.7746V94.2579H64" stroke="black"/>
<path d="M96.3018 63.096C109.603 64.9961 109.856 84.1239 96.3018 87.0374" stroke="black"/>
<path d="M243.307 62.7159C230.007 64.616 229.753 83.7438 243.307 86.6573" stroke="black"/>
</svg>
