<svg width="40" height="40" viewBox="0 0 40 40" fill="none" xmlns="http://www.w3.org/2000/svg">
<path d="M33.3332 22.9166C33.3332 22.5851 33.2015 22.2672 32.9671 22.0328C32.7326 21.7983 32.4147 21.6666 32.0832 21.6666H27.0832C26.7516 21.6666 26.4337 21.7983 26.1993 22.0328C25.9649 22.2672 25.8332 22.5851 25.8332 22.9166V34.1666H23.3332V7.08331C23.3332 5.86998 23.3298 5.08331 23.2532 4.50665C23.1798 3.96498 23.0615 3.79498 22.9665 3.69998C22.8715 3.60498 22.7015 3.48665 22.1598 3.41331C21.5815 3.33665 20.7965 3.33331 19.5832 3.33331C18.3698 3.33331 17.5832 3.33665 17.0065 3.41331C16.4648 3.48665 16.2948 3.60498 16.1998 3.69998C16.1048 3.79498 15.9865 3.96498 15.9132 4.50665C15.8365 5.08498 15.8332 5.86998 15.8332 7.08331V34.1666H13.3332V14.5833C13.3332 14.2518 13.2015 13.9339 12.9671 13.6994C12.7326 13.465 12.4147 13.3333 12.0832 13.3333H7.08317C6.75165 13.3333 6.43371 13.465 6.19929 13.6994C5.96487 13.9339 5.83317 14.2518 5.83317 14.5833V34.1666H2.9165C2.58498 34.1666 2.26704 34.2983 2.03262 34.5328C1.7982 34.7672 1.6665 35.0851 1.6665 35.4166C1.6665 35.7482 1.7982 36.0661 2.03262 36.3005C2.26704 36.535 2.58498 36.6666 2.9165 36.6666H36.2498C36.5814 36.6666 36.8993 36.535 37.1337 36.3005C37.3681 36.0661 37.4998 35.7482 37.4998 35.4166C37.4998 35.0851 37.3681 34.7672 37.1337 34.5328C36.8993 34.2983 36.5814 34.1666 36.2498 34.1666H33.3332V22.9166Z" fill="#5CADFF"/>
</svg>
