<svg width="330" height="152" viewBox="0 0 330 152" fill="none" xmlns="http://www.w3.org/2000/svg">
<rect width="330" height="151.038" rx="10" fill="white"/>
<rect x="81" y="9" width="168.061" height="135" fill="#D9D9D9"/>
<rect x="81" y="9" width="42.0153" height="33.75" fill="black"/>
<rect x="81" y="9" width="42.0153" height="33.75" fill="black"/>
<rect x="81" y="42.75" width="42.0153" height="33.75" fill="#F2F1F6"/>
<rect x="81" y="76.5" width="42.0153" height="33.75" fill="black"/>
<rect x="81" y="76.5" width="42.0153" height="33.75" fill="black"/>
<rect x="81" y="110.25" width="42.0153" height="33.75" fill="#F2F1F6"/>
<rect x="165.031" y="9" width="42.0153" height="33.75" fill="black"/>
<rect x="165.031" y="9" width="42.0153" height="33.75" fill="black"/>
<rect x="165.031" y="42.75" width="42.0153" height="33.75" fill="#F2F1F6"/>
<rect x="165.031" y="76.5" width="42.0153" height="33.75" fill="black"/>
<rect x="165.031" y="76.5" width="42.0153" height="33.75" fill="black"/>
<rect x="165.031" y="110.25" width="42.0153" height="33.75" fill="#F2F1F6"/>
<rect x="123.015" y="9" width="42.0153" height="33.75" fill="white"/>
<rect x="123.015" y="9" width="42.0153" height="33.75" fill="#F2F1F6"/>
<rect x="123.015" y="42.75" width="42.0153" height="33.75" fill="black"/>
<rect x="123.015" y="76.5" width="42.0153" height="33.75" fill="white"/>
<rect x="123.015" y="76.5" width="42.0153" height="33.75" fill="#F2F1F6"/>
<rect x="123.015" y="110.25" width="42.0153" height="33.75" fill="black"/>
<rect x="207.046" y="9" width="42.0153" height="33.75" fill="white"/>
<rect x="207.046" y="9" width="42.0153" height="33.75" fill="#F2F1F6"/>
<rect x="207.046" y="42.75" width="42.0153" height="33.75" fill="black"/>
<rect x="207.046" y="76.5" width="42.0153" height="33.75" fill="white"/>
<rect x="207.046" y="76.5" width="42.0153" height="33.75" fill="#F2F1F6"/>
<rect x="207.046" y="110.25" width="42.0153" height="33.75" fill="black"/>
<path d="M225.721 135.045C222.334 124.21 223.896 119.815 230.863 114V116.89L240.492 122.219C241.134 123.374 241.204 124.137 240.492 125.832C239.902 126.595 239.438 126.873 238.529 127.277L233.761 126.284C233.392 129.982 233.694 131.914 235.35 135.045M225.721 135.045H235.35M225.721 135.045V137.845M235.35 135.045V137.845M225.721 137.845H235.35M225.721 137.845H224.131V142H237.687V137.845H235.35" stroke="#E8971E" stroke-width="2"/>
<rect x="229.208" y="84.1708" width="2.89445" height="19.5376" fill="#5CADFF"/>
<rect x="223" y="85.864" width="8.44457" height="2.89445" transform="rotate(-26.5526 223 85.864)" fill="#5CADFF"/>
<rect x="230.606" y="82" width="8.44475" height="2.89445" transform="rotate(28.8856 230.606 82)" fill="#5CADFF"/>
<rect x="178.223" y="128.81" width="2.89445" height="19.5376" transform="rotate(-89.517 178.223 128.81)" fill="#5CADFF"/>
<rect x="179.864" y="135.032" width="8.44457" height="2.89445" transform="rotate(-116.07 179.864 135.032)" fill="#5CADFF"/>
<rect x="176.064" y="127.394" width="8.44475" height="2.89445" transform="rotate(-60.6314 176.064 127.394)" fill="#5CADFF"/>
<rect x="138.223" y="128.81" width="2.89445" height="19.5376" transform="rotate(-89.517 138.223 128.81)" fill="#5CADFF"/>
<rect x="139.864" y="135.032" width="8.44457" height="2.89445" transform="rotate(-116.07 139.864 135.032)" fill="#5CADFF"/>
<rect x="136.064" y="127.394" width="8.44475" height="2.89445" transform="rotate(-60.6314 136.064 127.394)" fill="#5CADFF"/>
<rect x="100.208" y="118.171" width="2.89445" height="19.5376" fill="#5CADFF"/>
<rect x="94" y="119.864" width="8.44457" height="2.89445" transform="rotate(-26.5526 94 119.864)" fill="#5CADFF"/>
<rect x="101.606" y="116" width="8.44475" height="2.89445" transform="rotate(28.8856 101.606 116)" fill="#5CADFF"/>
<rect x="229.208" y="48.1708" width="2.89445" height="19.5376" fill="#5CADFF"/>
<rect x="223" y="49.864" width="8.44457" height="2.89445" transform="rotate(-26.5526 223 49.864)" fill="#5CADFF"/>
<rect x="230.606" y="46" width="8.44475" height="2.89445" transform="rotate(28.8856 230.606 46)" fill="#5CADFF"/>
<rect x="221.221" y="25.9026" width="2.89445" height="19.5376" transform="rotate(-90.3241 221.221 25.9026)" fill="#5CADFF"/>
<rect x="222.949" y="32.1007" width="8.44457" height="2.89445" transform="rotate(-116.877 222.949 32.1007)" fill="#5CADFF"/>
<rect x="219.042" y="24.5168" width="8.44475" height="2.89445" transform="rotate(-61.4386 219.042 24.5168)" fill="#5CADFF"/>
<rect x="179.852" y="17.0001" width="19" height="3" transform="rotate(38.1243 179.852 17.0001)" fill="#5CADFF"/>
<rect x="194.367" y="19.2755" width="19" height="3" transform="rotate(139.332 194.367 19.2755)" fill="#5CADFF"/>
<rect x="93.8521" y="86.0001" width="19" height="3" transform="rotate(38.1243 93.8521 86.0001)" fill="#5CADFF"/>
<rect x="108.367" y="88.2755" width="19" height="3" transform="rotate(139.332 108.367 88.2755)" fill="#5CADFF"/>
</svg>
