<svg width="332" height="205" viewBox="0 0 332 205" fill="none" xmlns="http://www.w3.org/2000/svg">
<rect width="332" height="205" rx="10" fill="white"/>
<rect x="39" y="69" width="168.061" height="135" fill="#D9D9D9"/>
<rect x="39" y="69" width="42.0153" height="33.75" fill="black"/>
<rect x="39" y="69" width="42.0153" height="33.75" fill="black"/>
<rect x="39" y="69" width="42.0153" height="33.75" fill="black"/>
<rect x="40" y="1" width="42.0153" height="33.75" fill="black"/>
<rect x="39" y="35" width="42.0153" height="33.75" fill="#F2F1F6"/>
<rect x="39" y="102.75" width="42.0153" height="33.75" fill="#F2F1F6"/>
<rect x="39" y="136.5" width="42.0153" height="33.75" fill="black"/>
<rect x="39" y="136.5" width="42.0153" height="33.75" fill="black"/>
<rect x="39" y="170.25" width="42.0153" height="33.75" fill="#F2F1F6"/>
<rect x="123.031" y="69" width="42.0153" height="33.75" fill="black"/>
<rect x="123.031" y="69" width="42.0153" height="33.75" fill="black"/>
<rect x="124.031" y="1" width="42.0153" height="33.75" fill="black"/>
<rect x="123.031" y="35" width="42.0153" height="33.75" fill="#F2F1F6"/>
<rect x="123.031" y="102.75" width="42.0153" height="33.75" fill="#F2F1F6"/>
<rect x="123.031" y="136.5" width="42.0153" height="33.75" fill="black"/>
<rect x="123.031" y="136.5" width="42.0153" height="33.75" fill="black"/>
<rect x="123.031" y="170.25" width="42.0153" height="33.75" fill="#F2F1F6"/>
<rect x="81.0153" y="69" width="42.0153" height="33.75" fill="white"/>
<rect x="81.0154" y="69" width="42.0153" height="33.75" fill="#F2F1F6"/>
<rect x="82.0154" y="1" width="42.0153" height="33.75" fill="#F2F1F6"/>
<rect x="81.0154" y="35" width="42.0153" height="33.75" fill="black"/>
<rect x="81.0153" y="102.75" width="42.0153" height="33.75" fill="black"/>
<rect x="81.0153" y="136.5" width="42.0153" height="33.75" fill="white"/>
<rect x="81.0153" y="136.5" width="42.0153" height="33.75" fill="#F2F1F6"/>
<rect x="81.0153" y="170.25" width="42.0153" height="33.75" fill="black"/>
<rect x="165.046" y="69" width="42.0153" height="33.75" fill="white"/>
<rect x="165.046" y="69" width="42.0153" height="33.75" fill="#F2F1F6"/>
<rect x="166.046" y="1" width="42.0153" height="33.75" fill="#F2F1F6"/>
<rect x="250" y="69" width="42.0153" height="33.75" fill="#F2F1F6"/>
<rect x="250" y="69" width="42.0153" height="33.75" fill="#F2F1F6"/>
<rect x="251" y="1" width="42.0153" height="33.75" fill="#F2F1F6"/>
<rect x="165.046" y="35" width="42.0153" height="33.75" fill="black"/>
<rect x="250" y="35" width="42.0153" height="33.75" fill="black"/>
<rect x="207" y="69" width="42.0153" height="33.75" fill="#F2F1F6"/>
<rect x="207" y="35" width="42.0153" height="33.75" fill="#F2F1F6"/>
<rect x="165.046" y="102.75" width="42.0153" height="33.75" fill="black"/>
<rect x="250" y="102.75" width="42.0153" height="33.75" fill="black"/>
<rect x="207" y="69" width="42.0153" height="33.75" fill="black"/>
<rect x="208" y="1" width="42.0153" height="33.75" fill="black"/>
<rect x="207" y="103" width="42.0153" height="33.75" fill="#F2F1F6"/>
<rect x="165.046" y="136.5" width="42.0153" height="33.75" fill="white"/>
<rect x="165.046" y="136.5" width="42.0153" height="33.75" fill="#F2F1F6"/>
<rect x="250" y="136.5" width="42.0153" height="33.75" fill="#F2F1F6"/>
<rect x="207" y="136.5" width="42.0153" height="33.75" fill="black"/>
<rect x="165.046" y="170.25" width="42.0153" height="33.75" fill="black"/>
<rect x="250" y="170.25" width="42.0153" height="33.75" fill="black"/>
<rect x="207" y="170.25" width="42.0153" height="33.75" fill="#F2F1F6"/>
<path d="M265.721 194.045C262.334 183.21 263.896 178.815 270.863 173V175.89L280.492 181.219C281.134 182.374 281.204 183.137 280.492 184.832C279.902 185.595 279.438 185.873 278.529 186.277L273.761 185.284C273.392 188.982 273.694 190.914 275.35 194.045M265.721 194.045H275.35M265.721 194.045V196.845M275.35 194.045V196.845M265.721 196.845H275.35M265.721 196.845H264.131V201H277.687V196.845H275.35" stroke="#E8971E" stroke-width="2"/>
<rect x="53.8521" y="43.0001" width="19" height="3" transform="rotate(38.1243 53.8521 43.0001)" fill="#5CADFF"/>
<rect x="68.3665" y="45.2755" width="19" height="3" transform="rotate(139.332 68.3665 45.2755)" fill="#5CADFF"/>
</svg>
