<svg width="187" height="95" viewBox="0 0 187 95" fill="none" xmlns="http://www.w3.org/2000/svg">
<path d="M93.5 65.198L80.7003 75.8445C80.0661 76.4098 79.3742 76.6774 78.6247 76.6472C77.8751 76.6171 77.2121 76.3809 76.6355 75.9387C76.059 75.499 75.6127 74.9023 75.2968 74.1486C74.9808 73.3948 74.9658 72.5783 75.2518 71.6989L80.1814 54.2688L67.6412 44.5645C66.9493 44.062 66.5169 43.4025 66.3439 42.586C66.171 41.7694 66.1998 41.0157 66.4304 40.3248C66.661 39.6338 67.0646 39.0208 67.6412 38.4856C68.2177 37.9505 68.9096 37.6842 69.7168 37.6867H85.1975L90.2136 19.5971C90.5018 18.7177 90.9493 18.0418 91.5558 17.5695C92.1623 17.0972 92.8104 16.8623 93.5 16.8648C94.1918 16.8648 94.841 17.1009 95.4476 17.5733C96.0541 18.0456 96.5004 18.7202 96.7864 19.5971L101.802 37.6867H117.283C118.09 37.6867 118.782 37.9543 119.359 38.4894C119.935 39.0246 120.339 39.6363 120.57 40.3248C120.8 41.0157 120.829 41.7694 120.656 42.586C120.483 43.4025 120.051 44.062 119.359 44.5645L106.819 54.2688L111.748 71.6989C112.036 72.5783 112.023 73.3948 111.707 74.1486C111.391 74.9023 110.943 75.499 110.364 75.9387C109.788 76.3784 109.125 76.6145 108.375 76.6472C107.626 76.6799 106.934 76.4123 106.3 75.8445L93.5 65.198Z" fill="#C3D117"/>
<path d="M32.9772 73.9977L22.8092 82.4473C22.3054 82.8959 21.7558 83.1083 21.1604 83.0843C20.5649 83.0604 20.0382 82.873 19.5802 82.522C19.1222 82.1731 18.7677 81.6995 18.5167 81.1013C18.2657 80.5031 18.2538 79.855 18.481 79.1571L22.397 65.3237L12.4352 57.6219C11.8855 57.2231 11.542 56.6996 11.4046 56.0516C11.2672 55.4035 11.2901 54.8053 11.4733 54.257C11.6565 53.7086 11.9771 53.2221 12.4352 52.7974C12.8932 52.3727 13.4428 52.1613 14.084 52.1633H26.3817L30.3665 37.8064C30.5955 37.1085 30.9509 36.5721 31.4327 36.1973C31.9146 35.8224 32.4294 35.636 32.9772 35.638C33.5268 35.638 34.0425 35.8254 34.5244 36.2003C35.0062 36.5751 35.3607 37.1105 35.5879 37.8064L39.5726 52.1633H51.8703C52.5116 52.1633 53.0612 52.3756 53.5192 52.8004C53.9772 53.2251 54.2978 53.7106 54.481 54.257C54.6642 54.8053 54.6871 55.4035 54.5497 56.0516C54.4123 56.6996 54.0688 57.2231 53.5192 57.6219L43.5574 65.3237L47.4734 79.1571C47.7024 79.855 47.6914 80.5031 47.4404 81.1013C47.1894 81.6995 46.834 82.1731 46.3741 82.522C45.9161 82.871 45.3894 83.0584 44.794 83.0843C44.1986 83.1103 43.6489 82.8979 43.1451 82.4473L32.9772 73.9977Z" fill="#C3D117"/>
<path d="M154.023 73.9977L143.855 82.4473C143.351 82.8959 142.801 83.1083 142.206 83.0843C141.611 83.0604 141.084 82.873 140.626 82.522C140.168 82.1731 139.813 81.6995 139.562 81.1013C139.311 80.5031 139.299 79.855 139.527 79.1571L143.443 65.3237L133.481 57.6219C132.931 57.2231 132.588 56.6996 132.45 56.0516C132.313 55.4035 132.336 54.8053 132.519 54.257C132.702 53.7086 133.023 53.2221 133.481 52.7974C133.939 52.3727 134.488 52.1613 135.13 52.1633H147.427L151.412 37.8064C151.641 37.1085 151.997 36.5721 152.478 36.1973C152.96 35.8224 153.475 35.636 154.023 35.638C154.572 35.638 155.088 35.8254 155.57 36.2003C156.052 36.5751 156.406 37.1105 156.633 37.8064L160.618 52.1633H172.916C173.557 52.1633 174.107 52.3756 174.565 52.8004C175.023 53.2251 175.343 53.7106 175.527 54.257C175.71 54.8053 175.733 55.4035 175.595 56.0516C175.458 56.6996 175.114 57.2231 174.565 57.6219L164.603 65.3237L168.519 79.1571C168.748 79.855 168.737 80.5031 168.486 81.1013C168.235 81.6995 167.88 82.1731 167.42 82.522C166.962 82.871 166.435 83.0584 165.84 83.0843C165.244 83.1103 164.695 82.8979 164.191 82.4473L154.023 73.9977Z" fill="#C3D117"/>
</svg>
