<svg width="25" height="25" viewBox="0 0 25 25" fill="none" xmlns="http://www.w3.org/2000/svg">
<path d="M14.0625 1.5625C14.0625 1.1481 13.8979 0.750671 13.6049 0.457646C13.3118 0.16462 12.9144 0 12.5 0C12.0856 0 11.6882 0.16462 11.3951 0.457646C11.1021 0.750671 10.9375 1.1481 10.9375 1.5625V3.125C10.9375 3.5394 11.1021 3.93683 11.3951 4.22985C11.6882 4.52288 12.0856 4.6875 12.5 4.6875C12.9144 4.6875 13.3118 4.52288 13.6049 4.22985C13.8979 3.93683 14.0625 3.5394 14.0625 3.125V1.5625ZM21.3391 5.87031C21.6237 5.57562 21.7812 5.18093 21.7776 4.77125C21.7741 4.36157 21.6097 3.96967 21.32 3.67997C21.0303 3.39027 20.6384 3.22594 20.2288 3.22238C19.8191 3.21882 19.4244 3.37632 19.1297 3.66094L18.025 4.76563C17.7404 5.06032 17.5829 5.45501 17.5864 5.86469C17.59 6.27437 17.7543 6.66627 18.044 6.95597C18.3337 7.24567 18.7256 7.40999 19.1353 7.41355C19.545 7.41711 19.9397 7.25962 20.2344 6.975L21.3391 5.87031ZM25 12.5C25 12.9144 24.8354 13.3118 24.5424 13.6049C24.2493 13.8979 23.8519 14.0625 23.4375 14.0625H21.875C21.4606 14.0625 21.0632 13.8979 20.7701 13.6049C20.4771 13.3118 20.3125 12.9144 20.3125 12.5C20.3125 12.0856 20.4771 11.6882 20.7701 11.3951C21.0632 11.1021 21.4606 10.9375 21.875 10.9375H23.4375C23.8519 10.9375 24.2493 11.1021 24.5424 11.3951C24.8354 11.6882 25 12.0856 25 12.5ZM4.76563 6.975C4.90976 7.12423 5.08217 7.24327 5.27281 7.32516C5.46344 7.40705 5.66847 7.45015 5.87594 7.45195C6.0834 7.45376 6.28915 7.41422 6.48118 7.33566C6.6732 7.2571 6.84766 7.14107 6.99437 6.99437C7.14107 6.84766 7.2571 6.6732 7.33566 6.48118C7.41422 6.28915 7.45376 6.0834 7.45195 5.87594C7.45015 5.66847 7.40705 5.46344 7.32516 5.27281C7.24327 5.08217 7.12423 4.90976 6.975 4.76563L5.87031 3.66094C5.57562 3.37632 5.18093 3.21882 4.77125 3.22238C4.36157 3.22594 3.96967 3.39027 3.67997 3.67997C3.39027 3.96967 3.22594 4.36157 3.22238 4.77125C3.21882 5.18093 3.37632 5.57562 3.66094 5.87031L4.76563 6.975ZM4.6875 12.5C4.6875 12.9144 4.52288 13.3118 4.22985 13.6049C3.93683 13.8979 3.5394 14.0625 3.125 14.0625H1.5625C1.1481 14.0625 0.750671 13.8979 0.457646 13.6049C0.16462 13.3118 0 12.9144 0 12.5C0 12.0856 0.16462 11.6882 0.457646 11.3951C0.750671 11.1021 1.1481 10.9375 1.5625 10.9375H3.125C3.5394 10.9375 3.93683 11.1021 4.22985 11.3951C4.52288 11.6882 4.6875 12.0856 4.6875 12.5ZM9.375 21.875V20.3125H15.625V21.875C15.625 22.7038 15.2958 23.4987 14.7097 24.0847C14.1237 24.6708 13.3288 25 12.5 25C11.6712 25 10.8763 24.6708 10.2903 24.0847C9.70424 23.4987 9.375 22.7038 9.375 21.875ZM15.625 18.75C15.6484 18.2188 15.95 17.7406 16.3703 17.4078C17.3901 16.6035 18.134 15.5015 18.4987 14.2549C18.8633 13.0084 18.8305 11.6792 18.4048 10.4521C17.9792 9.225 17.1818 8.16101 16.1236 7.40799C15.0653 6.65498 13.7988 6.25035 12.5 6.25035C11.2012 6.25035 9.93465 6.65498 8.87641 7.40799C7.81817 8.16101 7.02082 9.225 6.59517 10.4521C6.16952 11.6792 6.13672 13.0084 6.50134 14.2549C6.86596 15.5015 7.60987 16.6035 8.62969 17.4078C9.05156 17.7406 9.35156 18.2188 9.37344 18.75H15.6266H15.625Z" fill="#5CADFF"/>
</svg>
