<svg width="332" height="206" viewBox="0 0 332 206" fill="none" xmlns="http://www.w3.org/2000/svg">
<rect width="332" height="205" rx="10" fill="white"/>
<path d="M294 205.5H40C41.6497 188.006 45.4363 180.757 53.5 169C75.1002 145.889 89.6151 138.563 117 129C164.573 118.789 190.075 120.022 233.5 134.5C277.819 155.172 289.384 171.29 294 205.5Z" fill="#5CADFF"/>
<path d="M192.736 23.7782C188.459 26.7436 186.007 27.0102 181.57 24.4025L182.19 5.05042L192.736 23.7782Z" fill="#93FF82" stroke="#E8971E" stroke-width="0.5"/>
<path d="M247.948 141.139L254.772 131.775L269.661 156.746L247.948 141.139Z" fill="#59C5FE" stroke="#E8971E" stroke-width="0.5"/>
<path d="M189.014 123.66C188.33 115.353 186.317 111.417 179.088 106.805V123.036L189.014 123.66Z" fill="#59C5FE" stroke="#E8971E" stroke-width="0.5"/>
<path d="M177.927 143.231L182.075 4.77412L273.271 162.872L177.927 143.231Z" stroke="#E8971E"/>
<path d="M149.623 170.93C99.0687 171.633 82.8936 167.235 67.5 154.09C99.6221 128.808 126.629 119.723 185.757 122.472C244.886 125.222 276.797 163.026 276.797 163.026C286.96 190.209 291.354 204.135 241.601 170.93C207.485 188.768 191.164 160.555 199.366 152.716C207.568 144.876 166.32 170.397 149.623 170.93Z" fill="#55CD68"/>
</svg>
