<svg width="330" height="152" viewBox="0 0 330 152" fill="none" xmlns="http://www.w3.org/2000/svg">
<rect y="0.00012207" width="330" height="151.038" rx="10" fill="white"/>
<path d="M210.329 48.4824L163.924 31.2247L123.311 51.4997L165.499 107.735L210.329 48.4824Z" fill="#5CADFF" stroke="black"/>
<path d="M148.624 85.1406C162.012 72.9815 169.323 73.2475 182.124 85.3265L165.499 107.735L148.624 85.1406Z" fill="#93FF82" stroke="black"/>
<path d="M64.918 59.5303L78.5584 107.124L165.274 108.123L106.174 27L64.918 59.5303Z" fill="#5CADFF" stroke="black"/>
<path d="M145.92 81.5571C133.199 86.9996 129.108 92.852 135.06 107.409L165.351 108.23L145.92 81.5571Z" fill="#93FF82" stroke="black"/>
<path d="M219.566 32.6196L263.253 61.8033L256.091 106.627C227.468 107.499 169.259 109.039 165.405 108.223L219.566 32.6196Z" fill="#5CADFF" stroke="black"/>
<path d="M184.429 81.2146C196.661 88.6849 198.535 95.3407 193.599 107.658L179.705 108.087L165.405 108.223L184.429 81.2146Z" fill="#93FF82" stroke="black"/>
<path d="M156.267 69V58.6821H156.134L153.087 60.8901V59.313L156.275 57.022H157.761V69H156.267ZM164.906 69.1992C162.366 69.1992 160.557 67.7715 160.557 65.7627V65.7461C160.557 64.2686 161.594 63.04 163.13 62.6831V62.6499C161.819 62.2432 160.988 61.2471 160.988 59.9854V59.9688C160.988 58.1592 162.64 56.8228 164.906 56.8228C167.173 56.8228 168.824 58.1592 168.824 59.9688V59.9854C168.824 61.2471 167.994 62.2432 166.683 62.6499V62.6831C168.218 63.04 169.256 64.2686 169.256 65.7461V65.7627C169.256 67.7715 167.446 69.1992 164.906 69.1992ZM164.906 62.0938C166.351 62.0938 167.339 61.272 167.339 60.1099V60.0933C167.339 58.9312 166.351 58.1094 164.906 58.1094C163.462 58.1094 162.474 58.9312 162.474 60.0933V60.1099C162.474 61.272 163.462 62.0938 164.906 62.0938ZM164.906 67.896C166.558 67.896 167.737 66.9663 167.737 65.6714V65.6548C167.737 64.3433 166.567 63.4053 164.906 63.4053C163.246 63.4053 162.076 64.3433 162.076 65.6548V65.6714C162.076 66.9663 163.255 67.896 164.906 67.896ZM175.273 69.2822C172.625 69.2822 171.048 66.8667 171.048 63.0151V62.9985C171.048 59.147 172.625 56.7397 175.273 56.7397C177.921 56.7397 179.515 59.147 179.515 62.9985V63.0151C179.515 66.8667 177.921 69.2822 175.273 69.2822ZM175.273 67.979C176.991 67.979 178.012 66.0698 178.012 63.0151V62.9985C178.012 59.9438 176.991 58.0513 175.273 58.0513C173.555 58.0513 172.55 59.9438 172.55 62.9985V63.0151C172.55 66.0698 173.555 67.979 175.273 67.979ZM184.07 62.8574C182.46 62.8574 181.298 61.6206 181.298 60.0933V60.0767C181.298 58.5493 182.46 57.3125 184.07 57.3125C185.672 57.3125 186.843 58.5493 186.843 60.0767V60.0933C186.843 61.6206 185.672 62.8574 184.07 62.8574ZM184.07 61.6953C184.992 61.6953 185.598 60.9648 185.598 60.0933V60.0767C185.598 59.1885 184.984 58.4746 184.07 58.4746C183.141 58.4746 182.543 59.1885 182.543 60.0767V60.0933C182.543 60.9648 183.132 61.6953 184.07 61.6953Z" fill="white"/>
</svg>
