<svg width="330" height="152" viewBox="0 0 330 152" fill="none" xmlns="http://www.w3.org/2000/svg">
<rect width="330" height="151.038" rx="10" fill="white"/>
<rect x="81" y="9" width="168.061" height="135" fill="#D9D9D9"/>
<rect x="81" y="9" width="42.0153" height="33.75" fill="black"/>
<rect x="81" y="9" width="42.0153" height="33.75" fill="black"/>
<rect x="81" y="42.75" width="42.0153" height="33.75" fill="#F2F1F6"/>
<rect x="81" y="76.5" width="42.0153" height="33.75" fill="black"/>
<rect x="81" y="76.5" width="42.0153" height="33.75" fill="black"/>
<rect x="81" y="110.25" width="42.0153" height="33.75" fill="#F2F1F6"/>
<rect x="165.031" y="9" width="42.0153" height="33.75" fill="black"/>
<rect x="165.031" y="9" width="42.0153" height="33.75" fill="black"/>
<rect x="165.031" y="42.75" width="42.0153" height="33.75" fill="#F2F1F6"/>
<rect x="165.031" y="76.5" width="42.0153" height="33.75" fill="black"/>
<rect x="165.031" y="76.5" width="42.0153" height="33.75" fill="black"/>
<rect x="165.031" y="110.25" width="42.0153" height="33.75" fill="#F2F1F6"/>
<rect x="123.015" y="9" width="42.0153" height="33.75" fill="white"/>
<rect x="123.015" y="9" width="42.0153" height="33.75" fill="#F2F1F6"/>
<rect x="123.015" y="42.75" width="42.0153" height="33.75" fill="black"/>
<rect x="123.015" y="76.5" width="42.0153" height="33.75" fill="white"/>
<rect x="123.015" y="76.5" width="42.0153" height="33.75" fill="#F2F1F6"/>
<rect x="123.015" y="110.25" width="42.0153" height="33.75" fill="black"/>
<rect x="207.046" y="9" width="42.0153" height="33.75" fill="white"/>
<rect x="207.046" y="9" width="42.0153" height="33.75" fill="#F2F1F6"/>
<rect x="207.046" y="42.75" width="42.0153" height="33.75" fill="black"/>
<rect x="207.046" y="76.5" width="42.0153" height="33.75" fill="white"/>
<rect x="207.046" y="76.5" width="42.0153" height="33.75" fill="#F2F1F6"/>
<rect x="207.046" y="110.25" width="42.0153" height="33.75" fill="black"/>
</svg>
