<svg width="35" height="35" viewBox="0 0 35 35" fill="none" xmlns="http://www.w3.org/2000/svg">
<rect x="0.5" y="0.5" width="34" height="34" stroke="black"/>
<path d="M13.0977 21L16.1504 12.5449H17.5684L20.6211 21H19.2383L18.4766 18.7148H15.2422L14.4746 21H13.0977ZM16.8066 14.0273L15.5938 17.6602H18.125L16.9062 14.0273H16.8066ZM20.5391 16.5117V15.832L22.0391 14.4844C22.6836 13.8867 22.8594 13.6641 22.8594 13.377V13.3652C22.8594 13.0078 22.584 12.7617 22.1387 12.7617C21.6758 12.7617 21.3594 13.0371 21.3594 13.4355V13.4531L20.4863 13.4473V13.4355C20.4863 12.5742 21.1777 11.9941 22.1855 11.9941C23.123 11.9941 23.791 12.5098 23.791 13.2832V13.2949C23.791 13.793 23.5215 14.2148 22.6777 14.9414L21.8047 15.6797V15.7148H23.8613V16.5117H20.5391Z" fill="black"/>
</svg>
