<svg width="330" height="152" viewBox="0 0 330 152" fill="none" xmlns="http://www.w3.org/2000/svg">
<rect width="330" height="151.038" rx="10" fill="white"/>
<rect x="53.5" y="14.5" width="213" height="123" fill="#5CADFF" stroke="black" stroke-width="3"/>
<rect x="54.5" y="126.073" width="10.1549" height="10.3614" fill="#93FF82" stroke="black"/>
<rect x="54.5" y="114.711" width="10.1549" height="10.3614" fill="#93FF82" stroke="black"/>
<rect x="54.5" y="103.35" width="10.1549" height="10.3614" fill="#93FF82" stroke="black"/>
<rect x="54.5" y="91.9886" width="10.1549" height="10.3614" fill="#93FF82" stroke="black"/>
<rect x="54.5" y="80.6272" width="10.1549" height="10.3614" fill="#93FF82" stroke="black"/>
<rect x="54.5" y="69.2658" width="10.1549" height="10.3614" fill="#93FF82" stroke="black"/>
<rect x="54.5" y="57.9044" width="10.1549" height="10.3614" fill="#93FF82" stroke="black"/>
<rect x="54.5" y="46.5429" width="10.1549" height="10.3614" fill="#93FF82" stroke="black"/>
<rect x="54.75" y="38.5301" width="9.65493" height="9.86142" fill="#93FF82" stroke="black" stroke-width="1.5"/>
<rect x="54.5" y="26.9186" width="10.1549" height="10.3614" fill="#93FF82" stroke="black"/>
<rect x="54.5" y="15.5573" width="10.1549" height="10.3614" fill="#93FF82" stroke="black"/>
<rect x="99.1199" y="126.073" width="10.1549" height="10.3614" fill="#93FF82" stroke="black"/>
<rect x="99.1199" y="114.711" width="10.1549" height="10.3614" fill="#93FF82" stroke="black"/>
<rect x="99.1199" y="103.35" width="10.1549" height="10.3614" fill="#93FF82" stroke="black"/>
<rect x="99.1199" y="91.9886" width="10.1549" height="10.3614" fill="#93FF82" stroke="black"/>
<rect x="99.1199" y="80.6272" width="10.1549" height="10.3614" fill="#93FF82" stroke="black"/>
<rect x="99.1199" y="69.2658" width="10.1549" height="10.3614" fill="#93FF82" stroke="black"/>
<rect x="99.1199" y="57.9044" width="10.1549" height="10.3614" fill="#93FF82" stroke="black"/>
<rect x="99.1199" y="46.5429" width="10.1549" height="10.3614" fill="#93FF82" stroke="black"/>
<rect x="99.1199" y="38.2801" width="10.1549" height="10.3614" fill="#93FF82" stroke="black"/>
<rect x="99.1199" y="26.9186" width="10.1549" height="10.3614" fill="#93FF82" stroke="black"/>
<rect x="99.1199" y="15.5573" width="10.1549" height="10.3614" fill="#93FF82" stroke="black"/>
<rect x="143.74" y="126.073" width="10.1549" height="10.3614" fill="#93FF82" stroke="black"/>
<rect x="143.74" y="114.711" width="10.1549" height="10.3614" fill="#93FF82" stroke="black"/>
<rect x="143.74" y="103.35" width="10.1549" height="10.3614" fill="#93FF82" stroke="black"/>
<rect x="143.74" y="91.9886" width="10.1549" height="10.3614" fill="#93FF82" stroke="black"/>
<rect x="143.74" y="80.6272" width="10.1549" height="10.3614" fill="#93FF82" stroke="black"/>
<rect x="143.74" y="69.2658" width="10.1549" height="10.3614" fill="#93FF82" stroke="black"/>
<rect x="143.74" y="57.9044" width="10.1549" height="10.3614" fill="#93FF82" stroke="black"/>
<rect x="143.74" y="46.5429" width="10.1549" height="10.3614" fill="#93FF82" stroke="black"/>
<rect x="143.74" y="38.2801" width="10.1549" height="10.3614" fill="#93FF82" stroke="black"/>
<rect x="143.74" y="26.9186" width="10.1549" height="10.3614" fill="#93FF82" stroke="black"/>
<rect x="143.74" y="15.5573" width="10.1549" height="10.3614" fill="#93FF82" stroke="black"/>
<rect x="188.359" y="126.073" width="10.1549" height="10.3614" fill="#93FF82" stroke="black"/>
<rect x="188.359" y="114.711" width="10.1549" height="10.3614" fill="#93FF82" stroke="black"/>
<rect x="188.359" y="103.35" width="10.1549" height="10.3614" fill="#93FF82" stroke="black"/>
<rect x="188.359" y="91.9886" width="10.1549" height="10.3614" fill="#93FF82" stroke="black"/>
<rect x="188.359" y="80.6272" width="10.1549" height="10.3614" fill="#93FF82" stroke="black"/>
<rect x="188.359" y="69.2658" width="10.1549" height="10.3614" fill="#93FF82" stroke="black"/>
<rect x="188.359" y="57.9044" width="10.1549" height="10.3614" fill="#93FF82" stroke="black"/>
<rect x="188.359" y="46.5429" width="10.1549" height="10.3614" fill="#93FF82" stroke="black"/>
<rect x="188.359" y="38.2801" width="10.1549" height="10.3614" fill="#93FF82" stroke="black"/>
<rect x="188.359" y="26.9186" width="10.1549" height="10.3614" fill="#93FF82" stroke="black"/>
<rect x="188.359" y="15.5573" width="10.1549" height="10.3614" fill="#93FF82" stroke="black"/>
<rect x="76.8101" y="126.073" width="10.1549" height="10.3614" fill="#93FF82" stroke="black"/>
<rect x="76.8101" y="114.711" width="10.1549" height="10.3614" fill="#93FF82" stroke="black"/>
<rect x="76.8101" y="103.35" width="10.1549" height="10.3614" fill="#93FF82" stroke="black"/>
<rect x="76.8101" y="91.9886" width="10.1549" height="10.3614" fill="#93FF82" stroke="black"/>
<rect x="76.8101" y="80.6272" width="10.1549" height="10.3614" fill="#93FF82" stroke="black"/>
<rect x="76.8101" y="69.2658" width="10.1549" height="10.3614" fill="#93FF82" stroke="black"/>
<rect x="76.8101" y="57.9044" width="10.1549" height="10.3614" fill="#93FF82" stroke="black"/>
<rect x="76.8101" y="46.5429" width="10.1549" height="10.3614" fill="#93FF82" stroke="black"/>
<rect x="76.8101" y="38.2801" width="10.1549" height="10.3614" fill="#93FF82" stroke="black"/>
<rect x="76.8101" y="26.9186" width="10.1549" height="10.3614" fill="#93FF82" stroke="black"/>
<rect x="76.8101" y="15.5573" width="10.1549" height="10.3614" fill="#93FF82" stroke="black"/>
<rect x="121.43" y="126.073" width="10.1549" height="10.3614" fill="#93FF82" stroke="black"/>
<rect x="121.43" y="114.711" width="10.1549" height="10.3614" fill="#93FF82" stroke="black"/>
<rect x="121.43" y="103.35" width="10.1549" height="10.3614" fill="#93FF82" stroke="black"/>
<rect x="121.43" y="91.9886" width="10.1549" height="10.3614" fill="#93FF82" stroke="black"/>
<rect x="121.43" y="80.6272" width="10.1549" height="10.3614" fill="#93FF82" stroke="black"/>
<rect x="121.43" y="69.2658" width="10.1549" height="10.3614" fill="#93FF82" stroke="black"/>
<rect x="121.43" y="57.9044" width="10.1549" height="10.3614" fill="#93FF82" stroke="black"/>
<rect x="121.43" y="46.5429" width="10.1549" height="10.3614" fill="#93FF82" stroke="black"/>
<rect x="121.43" y="38.2801" width="10.1549" height="10.3614" fill="#93FF82" stroke="black"/>
<rect x="121.43" y="26.9186" width="10.1549" height="10.3614" fill="#93FF82" stroke="black"/>
<rect x="121.43" y="15.5573" width="10.1549" height="10.3614" fill="#93FF82" stroke="black"/>
<rect x="166.049" y="126.073" width="10.1549" height="10.3614" fill="#93FF82" stroke="black"/>
<rect x="166.049" y="114.711" width="10.1549" height="10.3614" fill="#93FF82" stroke="black"/>
<rect x="166.049" y="103.35" width="10.1549" height="10.3614" fill="#93FF82" stroke="black"/>
<rect x="166.049" y="91.9886" width="10.1549" height="10.3614" fill="#93FF82" stroke="black"/>
<rect x="166.049" y="80.6272" width="10.1549" height="10.3614" fill="#93FF82" stroke="black"/>
<rect x="166.049" y="69.2658" width="10.1549" height="10.3614" fill="#93FF82" stroke="black"/>
<rect x="166.049" y="57.9044" width="10.1549" height="10.3614" fill="#93FF82" stroke="black"/>
<rect x="166.049" y="46.5429" width="10.1549" height="10.3614" fill="#93FF82" stroke="black"/>
<rect x="166.049" y="38.2801" width="10.1549" height="10.3614" fill="#93FF82" stroke="black"/>
<rect x="166.049" y="26.9186" width="10.1549" height="10.3614" fill="#93FF82" stroke="black"/>
<rect x="166.049" y="15.5573" width="10.1549" height="10.3614" fill="#93FF82" stroke="black"/>
<rect x="210.669" y="126.073" width="10.1549" height="10.3614" fill="#93FF82" stroke="black"/>
<rect x="210.669" y="114.711" width="10.1549" height="10.3614" fill="#93FF82" stroke="black"/>
<rect x="210.669" y="103.35" width="10.1549" height="10.3614" fill="#93FF82" stroke="black"/>
<rect x="210.669" y="91.9886" width="10.1549" height="10.3614" fill="#93FF82" stroke="black"/>
<rect x="210.669" y="80.6272" width="10.1549" height="10.3614" fill="#93FF82" stroke="black"/>
<rect x="210.669" y="69.2658" width="10.1549" height="10.3614" fill="#93FF82" stroke="black"/>
<rect x="210.669" y="57.9044" width="10.1549" height="10.3614" fill="#93FF82" stroke="black"/>
<rect x="210.669" y="46.5429" width="10.1549" height="10.3614" fill="#93FF82" stroke="black"/>
<rect x="210.669" y="38.2801" width="10.1549" height="10.3614" fill="#93FF82" stroke="black"/>
<rect x="210.669" y="26.9186" width="10.1549" height="10.3614" fill="#93FF82" stroke="black"/>
<rect x="210.669" y="15.5573" width="10.1549" height="10.3614" fill="#93FF82" stroke="black"/>
<rect x="244.134" y="126.073" width="10.1549" height="10.3614" fill="#93FF82" stroke="black"/>
<rect x="244.134" y="114.711" width="10.1549" height="10.3614" fill="#93FF82" stroke="black"/>
<rect x="244.134" y="103.35" width="10.1549" height="10.3614" fill="#93FF82" stroke="black"/>
<rect x="244.134" y="91.9886" width="10.1549" height="10.3614" fill="#93FF82" stroke="black"/>
<rect x="244.134" y="80.6272" width="10.1549" height="10.3614" fill="#93FF82" stroke="black"/>
<rect x="244.134" y="69.2658" width="10.1549" height="10.3614" fill="#93FF82" stroke="black"/>
<rect x="244.134" y="57.9044" width="10.1549" height="10.3614" fill="#93FF82" stroke="black"/>
<rect x="244.134" y="46.5429" width="10.1549" height="10.3614" fill="#93FF82" stroke="black"/>
<rect x="244.134" y="38.2801" width="10.1549" height="10.3614" fill="#93FF82" stroke="black"/>
<rect x="244.134" y="26.9186" width="10.1549" height="10.3614" fill="#93FF82" stroke="black"/>
<rect x="244.134" y="15.5573" width="10.1549" height="10.3614" fill="#93FF82" stroke="black"/>
<rect x="255.289" y="126.073" width="10.1549" height="10.3614" fill="#93FF82" stroke="black"/>
<rect x="255.289" y="114.711" width="10.1549" height="10.3614" fill="#93FF82" stroke="black"/>
<rect x="255.289" y="103.35" width="10.1549" height="10.3614" fill="#93FF82" stroke="black"/>
<rect x="255.289" y="91.9886" width="10.1549" height="10.3614" fill="#93FF82" stroke="black"/>
<rect x="255.289" y="80.6272" width="10.1549" height="10.3614" fill="#93FF82" stroke="black"/>
<rect x="255.289" y="69.2658" width="10.1549" height="10.3614" fill="#93FF82" stroke="black"/>
<rect x="255.289" y="57.9044" width="10.1549" height="10.3614" fill="#93FF82" stroke="black"/>
<rect x="255.289" y="46.5429" width="10.1549" height="10.3614" fill="#93FF82" stroke="black"/>
<rect x="255.539" y="38.5301" width="9.65493" height="9.86142" fill="#93FF82" stroke="black" stroke-width="1.5"/>
<rect x="255.289" y="26.9186" width="10.1549" height="10.3614" fill="#93FF82" stroke="black"/>
<rect x="255.289" y="15.5573" width="10.1549" height="10.3614" fill="#93FF82" stroke="black"/>
<rect x="65.6548" y="126.073" width="10.1549" height="10.3614" fill="#93FF82" stroke="black"/>
<rect x="65.6548" y="114.711" width="10.1549" height="10.3614" fill="#93FF82" stroke="black"/>
<rect x="65.6548" y="103.35" width="10.1549" height="10.3614" fill="#93FF82" stroke="black"/>
<rect x="65.6548" y="91.9886" width="10.1549" height="10.3614" fill="#93FF82" stroke="black"/>
<rect x="65.6548" y="80.6272" width="10.1549" height="10.3614" fill="#93FF82" stroke="black"/>
<rect x="65.6548" y="69.2658" width="10.1549" height="10.3614" fill="#93FF82" stroke="black"/>
<rect x="65.6548" y="57.9044" width="10.1549" height="10.3614" fill="#93FF82" stroke="black"/>
<rect x="65.6548" y="46.5429" width="10.1549" height="10.3614" fill="#93FF82" stroke="black"/>
<rect x="65.6548" y="38.2801" width="10.1549" height="10.3614" fill="#93FF82" stroke="black"/>
<rect x="65.6548" y="26.9186" width="10.1549" height="10.3614" fill="#93FF82" stroke="black"/>
<rect x="65.6548" y="15.5573" width="10.1549" height="10.3614" fill="#93FF82" stroke="black"/>
<rect x="110.275" y="126.073" width="10.1549" height="10.3614" fill="#93FF82" stroke="black"/>
<rect x="110.275" y="114.711" width="10.1549" height="10.3614" fill="#93FF82" stroke="black"/>
<rect x="110.275" y="103.35" width="10.1549" height="10.3614" fill="#93FF82" stroke="black"/>
<rect x="110.275" y="91.9886" width="10.1549" height="10.3614" fill="#93FF82" stroke="black"/>
<rect x="110.275" y="80.6272" width="10.1549" height="10.3614" fill="#93FF82" stroke="black"/>
<rect x="110.275" y="69.2658" width="10.1549" height="10.3614" fill="#93FF82" stroke="black"/>
<rect x="110.275" y="57.9044" width="10.1549" height="10.3614" fill="#93FF82" stroke="black"/>
<rect x="110.275" y="46.5429" width="10.1549" height="10.3614" fill="#93FF82" stroke="black"/>
<rect x="110.275" y="38.2801" width="10.1549" height="10.3614" fill="#93FF82" stroke="black"/>
<rect x="110.275" y="26.9186" width="10.1549" height="10.3614" fill="#93FF82" stroke="black"/>
<rect x="110.275" y="15.5573" width="10.1549" height="10.3614" fill="#93FF82" stroke="black"/>
<rect x="154.894" y="126.073" width="10.1549" height="10.3614" fill="#93FF82" stroke="black"/>
<rect x="154.894" y="114.711" width="10.1549" height="10.3614" fill="#93FF82" stroke="black"/>
<rect x="154.894" y="103.35" width="10.1549" height="10.3614" fill="#93FF82" stroke="black"/>
<rect x="154.894" y="91.9886" width="10.1549" height="10.3614" fill="#93FF82" stroke="black"/>
<rect x="154.894" y="80.6272" width="10.1549" height="10.3614" fill="#93FF82" stroke="black"/>
<rect x="154.894" y="69.2658" width="10.1549" height="10.3614" fill="#93FF82" stroke="black"/>
<rect x="154.894" y="57.9044" width="10.1549" height="10.3614" fill="#93FF82" stroke="black"/>
<rect x="154.894" y="46.5429" width="10.1549" height="10.3614" fill="#93FF82" stroke="black"/>
<rect x="154.894" y="38.2801" width="10.1549" height="10.3614" fill="#93FF82" stroke="black"/>
<rect x="154.894" y="26.9186" width="10.1549" height="10.3614" fill="#93FF82" stroke="black"/>
<rect x="154.894" y="15.5573" width="10.1549" height="10.3614" fill="#93FF82" stroke="black"/>
<rect x="199.514" y="126.073" width="10.1549" height="10.3614" fill="#93FF82" stroke="black"/>
<rect x="199.514" y="114.711" width="10.1549" height="10.3614" fill="#93FF82" stroke="black"/>
<rect x="199.514" y="103.35" width="10.1549" height="10.3614" fill="#93FF82" stroke="black"/>
<rect x="199.514" y="91.9886" width="10.1549" height="10.3614" fill="#93FF82" stroke="black"/>
<rect x="199.514" y="80.6272" width="10.1549" height="10.3614" fill="#93FF82" stroke="black"/>
<rect x="199.514" y="69.2658" width="10.1549" height="10.3614" fill="#93FF82" stroke="black"/>
<rect x="199.514" y="57.9044" width="10.1549" height="10.3614" fill="#93FF82" stroke="black"/>
<rect x="199.514" y="46.5429" width="10.1549" height="10.3614" fill="#93FF82" stroke="black"/>
<rect x="199.514" y="38.2801" width="10.1549" height="10.3614" fill="#93FF82" stroke="black"/>
<rect x="199.514" y="26.9186" width="10.1549" height="10.3614" fill="#93FF82" stroke="black"/>
<rect x="199.514" y="15.5573" width="10.1549" height="10.3614" fill="#93FF82" stroke="black"/>
<rect x="232.979" y="126.073" width="10.1549" height="10.3614" fill="#93FF82" stroke="black"/>
<rect x="232.979" y="114.711" width="10.1549" height="10.3614" fill="#93FF82" stroke="black"/>
<rect x="232.979" y="103.35" width="10.1549" height="10.3614" fill="#93FF82" stroke="black"/>
<rect x="232.979" y="91.9886" width="10.1549" height="10.3614" fill="#93FF82" stroke="black"/>
<rect x="232.979" y="80.6272" width="10.1549" height="10.3614" fill="#93FF82" stroke="black"/>
<rect x="232.979" y="69.2658" width="10.1549" height="10.3614" fill="#93FF82" stroke="black"/>
<rect x="232.979" y="57.9044" width="10.1549" height="10.3614" fill="#93FF82" stroke="black"/>
<rect x="232.979" y="46.5429" width="10.1549" height="10.3614" fill="#93FF82" stroke="black"/>
<rect x="232.979" y="38.2801" width="10.1549" height="10.3614" fill="#93FF82" stroke="black"/>
<rect x="232.979" y="26.9186" width="10.1549" height="10.3614" fill="#93FF82" stroke="black"/>
<rect x="232.979" y="15.5573" width="10.1549" height="10.3614" fill="#93FF82" stroke="black"/>
<rect x="87.9648" y="126.073" width="10.1549" height="10.3614" fill="#93FF82" stroke="black"/>
<rect x="87.9648" y="114.711" width="10.1549" height="10.3614" fill="#93FF82" stroke="black"/>
<rect x="87.9648" y="103.35" width="10.1549" height="10.3614" fill="#93FF82" stroke="black"/>
<rect x="87.9648" y="91.9886" width="10.1549" height="10.3614" fill="#93FF82" stroke="black"/>
<rect x="87.9648" y="80.6272" width="10.1549" height="10.3614" fill="#93FF82" stroke="black"/>
<rect x="87.9648" y="69.2658" width="10.1549" height="10.3614" fill="#93FF82" stroke="black"/>
<rect x="87.9648" y="57.9044" width="10.1549" height="10.3614" fill="#93FF82" stroke="black"/>
<rect x="87.9648" y="46.5429" width="10.1549" height="10.3614" fill="#93FF82" stroke="black"/>
<rect x="87.9648" y="38.2801" width="10.1549" height="10.3614" fill="#93FF82" stroke="black"/>
<rect x="87.9648" y="26.9186" width="10.1549" height="10.3614" fill="#93FF82" stroke="black"/>
<rect x="87.9648" y="15.5573" width="10.1549" height="10.3614" fill="#93FF82" stroke="black"/>
<rect x="132.584" y="126.073" width="10.1549" height="10.3614" fill="#93FF82" stroke="black"/>
<rect x="132.584" y="114.711" width="10.1549" height="10.3614" fill="#93FF82" stroke="black"/>
<rect x="132.584" y="103.35" width="10.1549" height="10.3614" fill="#93FF82" stroke="black"/>
<rect x="132.584" y="91.9886" width="10.1549" height="10.3614" fill="#93FF82" stroke="black"/>
<rect x="132.584" y="80.6272" width="10.1549" height="10.3614" fill="#93FF82" stroke="black"/>
<rect x="132.584" y="69.2658" width="10.1549" height="10.3614" fill="#93FF82" stroke="black"/>
<rect x="132.584" y="57.9044" width="10.1549" height="10.3614" fill="#93FF82" stroke="black"/>
<rect x="132.584" y="46.5429" width="10.1549" height="10.3614" fill="#93FF82" stroke="black"/>
<rect x="132.584" y="38.2801" width="10.1549" height="10.3614" fill="#93FF82" stroke="black"/>
<rect x="132.584" y="26.9186" width="10.1549" height="10.3614" fill="#93FF82" stroke="black"/>
<rect x="132.584" y="15.5573" width="10.1549" height="10.3614" fill="#93FF82" stroke="black"/>
<rect x="177.204" y="126.073" width="10.1549" height="10.3614" fill="#93FF82" stroke="black"/>
<rect x="177.204" y="114.711" width="10.1549" height="10.3614" fill="#93FF82" stroke="black"/>
<rect x="177.204" y="103.35" width="10.1549" height="10.3614" fill="#93FF82" stroke="black"/>
<rect x="177.204" y="91.9886" width="10.1549" height="10.3614" fill="#93FF82" stroke="black"/>
<rect x="177.204" y="80.6272" width="10.1549" height="10.3614" fill="#93FF82" stroke="black"/>
<rect x="177.204" y="69.2658" width="10.1549" height="10.3614" fill="#93FF82" stroke="black"/>
<rect x="177.204" y="57.9044" width="10.1549" height="10.3614" fill="#93FF82" stroke="black"/>
<rect x="177.204" y="46.5429" width="10.1549" height="10.3614" fill="#93FF82" stroke="black"/>
<rect x="177.204" y="38.2801" width="10.1549" height="10.3614" fill="#93FF82" stroke="black"/>
<rect x="177.204" y="26.9186" width="10.1549" height="10.3614" fill="#93FF82" stroke="black"/>
<rect x="177.204" y="15.5573" width="10.1549" height="10.3614" fill="#93FF82" stroke="black"/>
<rect x="221.824" y="126.073" width="10.1549" height="10.3614" fill="#93FF82" stroke="black"/>
<rect x="221.824" y="114.711" width="10.1549" height="10.3614" fill="#93FF82" stroke="black"/>
<rect x="221.824" y="103.35" width="10.1549" height="10.3614" fill="#93FF82" stroke="black"/>
<rect x="221.824" y="91.9886" width="10.1549" height="10.3614" fill="#93FF82" stroke="black"/>
<rect x="221.824" y="80.6272" width="10.1549" height="10.3614" fill="#93FF82" stroke="black"/>
<rect x="221.824" y="69.2658" width="10.1549" height="10.3614" fill="#93FF82" stroke="black"/>
<rect x="221.824" y="57.9044" width="10.1549" height="10.3614" fill="#93FF82" stroke="black"/>
<rect x="221.824" y="46.5429" width="10.1549" height="10.3614" fill="#93FF82" stroke="black"/>
<rect x="221.824" y="38.2801" width="10.1549" height="10.3614" fill="#93FF82" stroke="black"/>
<rect x="221.824" y="26.9186" width="10.1549" height="10.3614" fill="#93FF82" stroke="black"/>
<rect x="221.824" y="15.5573" width="10.1549" height="10.3614" fill="#93FF82" stroke="black"/>
</svg>
