<svg width="330" height="152" viewBox="0 0 330 152" fill="none" xmlns="http://www.w3.org/2000/svg">
<rect width="330" height="151.038" rx="10" fill="white"/>
<rect x="98.5" y="11.5" width="129" height="129" fill="#5CADFF" stroke="black" stroke-width="3"/>
<rect x="211.9" y="13.1401" width="16.6" height="16.6" stroke="black"/>
<path d="M221.906 21.9288C221.906 22.6007 221.361 23.1455 220.689 23.1455C220.017 23.1455 219.472 22.6007 219.472 21.9288C219.472 21.2568 220.017 20.7121 220.689 20.7121C221.361 20.7121 221.906 21.2568 221.906 21.9288Z" stroke="black" stroke-width="0.5"/>
<rect x="98.3802" y="13.1401" width="16.6" height="16.6" stroke="black"/>
<path d="M108.386 21.9289C108.386 22.6008 107.841 23.1455 107.169 23.1455C106.497 23.1455 105.952 22.6008 105.952 21.9289C105.952 21.2569 106.497 20.7122 107.169 20.7122C107.841 20.7122 108.386 21.2569 108.386 21.9289Z" stroke="black" stroke-width="0.5"/>
<rect x="211.02" y="123.14" width="16.6" height="16.6" stroke="black"/>
<path d="M221.026 131.929C221.026 132.601 220.481 133.146 219.809 133.146C219.137 133.146 218.592 132.601 218.592 131.929C218.592 131.257 219.137 130.712 219.809 130.712C220.481 130.712 221.026 131.257 221.026 131.929Z" stroke="black" stroke-width="0.5"/>
<rect x="99.2599" y="122.26" width="16.6" height="16.6" stroke="black"/>
<path d="M109.266 131.049C109.266 131.721 108.721 132.266 108.049 132.266C107.377 132.266 106.832 131.721 106.832 131.049C106.832 130.377 107.377 129.832 108.049 129.832C108.721 129.832 109.266 130.377 109.266 131.049Z" stroke="black" stroke-width="0.5"/>
<path d="M227.958 10V141.942" stroke="#42FF23" stroke-width="4"/>
<path d="M97.8802 10V141.942" stroke="#42FF23" stroke-width="4"/>
<path d="M99.0842 11.7514H226.916" stroke="#42FF23" stroke-width="4"/>
<path d="M99.6401 140.24H227.472" stroke="#42FF23" stroke-width="4"/>
</svg>
