<svg width="330" height="152" viewBox="0 0 330 152" fill="none" xmlns="http://www.w3.org/2000/svg">
<rect width="330" height="151.038" rx="10" fill="white"/>
<path d="M164.667 6L68 135H262L164.667 6Z" fill="#5CADFF" stroke="black"/>
<path d="M181.5 28.5C168.18 40.7332 160.867 40.5078 148 28.5L164.5 6L181.5 28.5Z" fill="#93FF82" stroke="black"/>
<path d="M101 135C104.091 121.514 101.77 114.761 86.5 111L68 135H101Z" fill="#93FF82" stroke="black"/>
<path d="M228.467 134.941C227.34 120.653 231.63 115.23 244.5 112L253 123L261.5 134.5L228.467 134.941Z" fill="#93FF82" stroke="black"/>
<path d="M120 65.5L166.5 82.5L207 62L164.5 6L120 65.5Z" stroke="black"/>
<path d="M166.5 82.5L120 65.5L68.1323 135H168.5L166.5 82.5Z" stroke="black"/>
<path d="M168.5 135L166.5 82.5L207 62C224.5 84.6667 259.9 130.9 261.5 134.5L168.5 135Z" stroke="black"/>
</svg>
