<svg width="330" height="152" viewBox="0 0 330 152" fill="none" xmlns="http://www.w3.org/2000/svg">
<rect width="330" height="151.038" rx="10" fill="white"/>
<circle cx="165.5" cy="75.5" r="71.5" fill="#5CADFF"/>
<path d="M154.524 84.8082C152.05 84.8082 150.448 83.4303 150.29 81.5377L150.282 81.4381H151.718L151.726 81.5211C151.843 82.6998 152.93 83.5133 154.524 83.5133C156.093 83.5133 157.163 82.6334 157.163 81.3634V81.3468C157.163 79.8776 156.109 79.0558 154.432 79.0558H152.93V77.7941H154.366C155.794 77.7941 156.79 76.9142 156.79 75.7189V75.7023C156.79 74.4489 155.968 73.7267 154.507 73.7267C153.096 73.7267 152.092 74.4738 151.967 75.6857L151.959 75.7687H150.523L150.531 75.6857C150.722 73.735 152.266 72.4318 154.507 72.4318C156.79 72.4318 158.292 73.7018 158.292 75.5197V75.5363C158.292 77.0138 157.246 78.0265 155.752 78.3419V78.3751C157.495 78.5246 158.682 79.612 158.682 81.3136V81.3302C158.682 83.3307 156.923 84.8082 154.524 84.8082ZM164.932 84.8913C162.74 84.8913 160.424 83.3473 160.424 78.84V78.8234C160.424 74.7394 162.126 72.3488 165.031 72.3488C167.04 72.3488 168.534 73.5275 168.941 75.2955L168.966 75.4035H167.463L167.43 75.3121C167.065 74.3078 166.227 73.6852 165.015 73.6852C162.84 73.6852 161.952 75.8102 161.86 78.3087C161.852 78.4 161.852 78.4996 161.852 78.591H162.01C162.45 77.6115 163.579 76.7399 165.197 76.7399C167.447 76.7399 169.124 78.4498 169.124 80.7492V80.7658C169.124 83.1564 167.347 84.8913 164.932 84.8913ZM162.209 80.7492C162.209 82.3263 163.396 83.5714 164.915 83.5714C166.418 83.5714 167.621 82.3512 167.621 80.799V80.7824C167.621 79.1886 166.492 78.0431 164.94 78.0431C163.388 78.0431 162.209 79.1803 162.209 80.7409V80.7492ZM175.124 84.8913C172.476 84.8913 170.899 82.4757 170.899 78.6242V78.6076C170.899 74.756 172.476 72.3488 175.124 72.3488C177.772 72.3488 179.365 74.756 179.365 78.6076V78.6242C179.365 82.4757 177.772 84.8913 175.124 84.8913ZM175.124 83.588C176.842 83.588 177.863 81.6788 177.863 78.6242V78.6076C177.863 75.5529 176.842 73.6603 175.124 73.6603C173.406 73.6603 172.401 75.5529 172.401 78.6076V78.6242C172.401 81.6788 173.406 83.588 175.124 83.588ZM183.921 78.4664C182.311 78.4664 181.149 77.2296 181.149 75.7023V75.6857C181.149 74.1583 182.311 72.9215 183.921 72.9215C185.523 72.9215 186.694 74.1583 186.694 75.6857V75.7023C186.694 77.2296 185.523 78.4664 183.921 78.4664ZM183.921 77.3043C184.843 77.3043 185.449 76.5739 185.449 75.7023V75.6857C185.449 74.7975 184.834 74.0836 183.921 74.0836C182.992 74.0836 182.394 74.7975 182.394 75.6857V75.7023C182.394 76.5739 182.983 77.3043 183.921 77.3043Z" fill="white"/>
</svg>
