<svg width="113" height="113" viewBox="0 0 113 113" fill="none" xmlns="http://www.w3.org/2000/svg">
<path d="M90.4 12.2635V0H22.6V12.2635H0V29.7368C0 44.7539 10.6728 57.0828 24.4306 59.0693C26.4012 65.1522 29.8964 70.5618 34.5468 74.7263C39.1972 78.8907 44.8301 81.6553 50.85 82.7279V89.2105C50.85 92.3652 49.6595 95.3907 47.5403 97.6214C45.4211 99.8521 42.5469 101.105 39.55 101.105H33.9V113H79.1V101.105H73.45C70.4531 101.105 67.5789 99.8521 65.4597 97.6214C63.3405 95.3907 62.15 92.3652 62.15 89.2105V82.7279C68.1699 81.6553 73.8028 78.8907 78.4532 74.7263C83.1036 70.5618 86.5988 65.1522 88.5694 59.0693C102.327 57.0828 113 44.7539 113 29.7368V12.2635H90.4ZM11.3 29.7368V24.1582H22.6V46.556C19.2975 45.3233 16.4384 43.0448 14.4152 40.0334C12.392 37.022 11.3038 33.4252 11.3 29.7368ZM101.7 29.7368C101.696 33.4258 100.607 37.0231 98.5843 40.0354C96.5613 43.0476 93.7025 45.3274 90.4 46.562V24.1582H101.7V29.7368Z" fill="#FFE24A"/>
</svg>
